# xmcd
#
# Track frame offsets:
#	150
#	17041
#	34128
#	48787
#	64489
#	78592
#	96293
#	115893
#	132747
#	147607
#	160278
#	176877
#	189912
#	207660
#	224408
#
# Disc length: 3241 seconds
#
# Revision: 0
# Processed by: cddbd v1.5.1PL0 Copyright (c) Steve Scherf et al.
# Submitted via: audiograbber 1.83.01
#
DISCID=ec0ca70f
DTITLE=V - CB60110
DYEAR=1900
DGENRE=Karaoke Country
TTITLE0=George Strait - True
TTITLE1=Shania Twain - Honey I'm Home
TTITLE2=Hal Ketchum - When Love Looks Back At You
TTITLE3=Kenny Chesney - She Gets In The Way
TTITLE4=Joe Diffie - Poor Me
TTITLE5=Dixie Chicks - Wide Open Spaces
TTITLE6=John Berry - Better Than A Biscuit
TTITLE7=Aaron Tippin - For You I Will
TTITLE8=Tracy Lawrence - While You Sleep
TTITLE9=Rick Trevino - Only Lonely Me
TTITLE10=Terri Clark - You're Easy On The Eyes
TTITLE11=Clay Walker - You're Beginning To Get To Me
TTITLE12=Collin Raye - Someone You Used To Know
TTITLE13=Ty Herndon - It Must Be Love
TTITLE14=Shania Twain - Man I Feel Like A Woman
EXTD=Chartbuster
EXTT0=
EXTT1=
EXTT2=
EXTT3=
EXTT4=
EXTT5=
EXTT6=
EXTT7=
EXTT8=
EXTT9=
EXTT10=
EXTT11=
EXTT12=
EXTT13=
EXTT14=
PLAYORDER=
